<svg width="100" height="100" viewBox="0 0 100 100" xmlns="http://www.w3.org/2000/svg">
  <path d="M50 20 L55 5 L45 5 L50 20 Z M50 80 L55 95 L45 95 L50 80 Z M80 50 L95 55 L95 45 L80 50 Z M20 50 L5 55 L5 45 L20 50 Z M71 29 L82 18 L75 11 L64 22 Z M29 71 L18 82 L11 75 L22 64 Z M71 71 L82 82 L89 75 L78 64 Z M29 29 L18 18 L11 25 L22 36 Z" fill="#00C786">
    <animateTransform attributeName="transform" type="rotate" from="0 50 50" to="360 50 50" dur="5s" repeatCount="indefinite" />
  </path>
  <circle cx="50" cy="50" r="25" fill="none" stroke="#00C786" stroke-width="4" />
  <circle cx="50" cy="50" r="10" fill="#00C786">
    <animate attributeName="r" values="10;12;10" dur="2s" repeatCount="indefinite" />
  </circle>
</svg>
